<svg width="211" height="205" viewBox="0 0 211 205" fill="none" xmlns="http://www.w3.org/2000/svg">
<path d="M160.166 121.983L153.879 112.588C151.941 109.693 150.91 106.318 150.91 102.869V63.4075C150.91 47.6556 152.091 14.0966 105.575 14.0966C67.7336 14.0966 56.0321 33.5941 52.4139 45.6535C50.9774 50.4412 54.353 55.3161 59.4821 55.8277L74.1488 57.2908C77.6011 57.635 80.9115 55.8634 82.4088 52.8363C85.2519 47.0869 90.2078 38.5245 105.501 38.5245C111.425 38.5245 119.756 40.9471 119.756 48.0306C119.756 58.3086 119.742 63.1797 119.742 63.1797C119.782 65.3245 117.994 67.0845 115.775 67.0845H101.44C90.6229 67.0845 49.5198 72.4475 49.5198 112.187C49.5198 151.926 93.1355 147.354 96.0313 146.698C101.434 145.474 111.557 141.899 121.07 133.129C122.668 131.655 125.218 131.784 126.607 133.445L134.289 142.636C137.275 146.208 142.768 146.584 146.244 143.454L158.872 132.083C161.779 129.464 162.324 125.208 160.166 121.983ZM97.1124 119.768C82.5099 119.768 82.9261 107.004 86.2955 100.944C89.4481 95.2746 97.7774 85.2239 120.139 84.5393L120.334 95.0863C120.48 102.926 116.75 110.457 110.117 114.969C106.007 117.766 101.523 119.768 97.1124 119.768Z" fill="#171715"/>
<path d="M0.870993 156.055C-1.34974 154.115 1.06689 150.679 3.75153 151.957C22.6195 160.943 58.1404 174.836 97.4043 174.836C137.529 174.836 171.097 165.57 187.991 159.852C190.739 158.922 192.718 162.398 190.456 164.17C177.052 174.666 148.268 190.903 98.4593 190.903C48.8378 190.903 16.6052 169.802 0.870993 156.055Z" fill="#FFAC35"/>
<path d="M170.308 150.399C175.543 146.652 188.547 140.193 207.982 145.841C209.768 146.36 210.985 147.957 210.999 149.76C211.046 155.925 209.672 170.398 197.191 182.426C196.324 183.261 194.865 182.441 195.186 181.299C197.317 173.71 201.65 157.432 200.276 155.161C198.699 152.557 179.002 152.433 171.022 152.49C169.857 152.499 169.373 151.069 170.308 150.399Z" fill="#FFAC35"/>
</svg>
