<svg width="173" height="220" viewBox="0 0 173 220" fill="none" xmlns="http://www.w3.org/2000/svg">
<g clip-path="url(#clip0_362_9)">
<path d="M169.374 171.447C166.268 179.133 162.592 186.208 158.332 192.713C152.526 201.58 147.771 207.719 144.108 211.127C138.428 216.722 132.343 219.587 125.826 219.75C121.148 219.75 115.507 218.324 108.94 215.432C102.351 212.553 96.2961 211.127 90.7597 211.127C84.9533 211.127 78.726 212.553 72.0652 215.432C65.3942 218.324 60.0201 219.832 55.9112 219.981C49.6624 220.266 43.4338 217.319 37.2167 211.127C33.2486 207.42 28.2852 201.064 22.3394 192.061C15.96 182.446 10.7152 171.297 6.60635 158.587C2.20592 144.857 0 131.563 0 118.692C0 103.948 2.97419 91.2321 8.93145 80.576C13.6133 72.0166 19.8419 65.2647 27.6374 60.3081C35.4329 55.3514 43.856 52.8256 52.9269 52.664C57.8902 52.664 64.3989 54.3085 72.4873 57.5405C80.5529 60.7833 85.7317 62.4279 88.0023 62.4279C89.6999 62.4279 95.453 60.505 105.206 56.6714C114.429 53.1162 122.213 51.6441 128.59 52.224C145.87 53.7178 158.852 61.0142 167.485 74.1595C152.031 84.1896 144.386 98.2379 144.539 116.26C144.678 130.297 149.432 141.979 158.776 151.254C163.01 155.558 167.739 158.885 173 161.248C171.859 164.793 170.655 168.188 169.374 171.447V171.447ZM129.744 4.40122C129.744 15.4037 125.991 25.6768 118.511 35.1854C109.485 46.4892 98.5666 53.0211 86.7269 51.9904C86.5761 50.6704 86.4886 49.2812 86.4886 47.8214C86.4886 37.259 90.7813 25.9551 98.4044 16.7127C102.21 12.0331 107.051 8.14206 112.92 5.03812C118.777 1.98048 124.318 0.289522 129.528 0C129.68 1.47083 129.744 2.9418 129.744 4.40109V4.40122Z" fill="url(#paint0_linear_362_9)"/>
</g>
<defs>
<linearGradient id="paint0_linear_362_9" x1="73.9167" y1="142.026" x2="73.2517" y2="-38.5668" gradientUnits="userSpaceOnUse">
<stop/>
<stop offset="1" stop-opacity="0"/>
</linearGradient>
<clipPath id="clip0_362_9">
<rect width="173" height="220" fill="white"/>
</clipPath>
</defs>
</svg>
