<svg width="199" height="223" viewBox="0 0 199 223" fill="none" xmlns="http://www.w3.org/2000/svg">
<g clip-path="url(#clip0_98_668)">
<path d="M99.5 222.5C154.452 222.5 199 172.804 199 111.5C199 50.1964 154.452 0.5 99.5 0.5C44.5477 0.5 0 50.1964 0 111.5C0 172.804 44.5477 222.5 99.5 222.5Z" fill="#1977F3"/>
<path d="M138.231 143.593L142.639 111.5H115.046V90.6768C115.046 81.9042 118.894 73.3345 131.263 73.3345H143.814V46.0177C143.814 46.0177 132.424 43.8479 121.538 43.8479C98.8144 43.8479 83.9545 59.2078 83.9545 87.0397V111.5H58.6842V143.593H83.9545V221.158C89.0197 222.047 94.2109 222.5 99.5001 222.5C104.789 222.5 109.98 222.032 115.046 221.158V143.593H138.231Z" fill="white"/>
</g>
<defs>
<clipPath id="clip0_98_668">
<rect width="199" height="222" fill="white" transform="translate(0 0.5)"/>
</clipPath>
</defs>
</svg>
