<svg width="153" height="201" viewBox="0 0 153 201" fill="none" xmlns="http://www.w3.org/2000/svg">
<g clip-path="url(#clip0_98_686)">
<path d="M97.7238 0.5L97.6166 44.3875L97.5089 88.275L92.4922 78.0868C92.4905 78.0833 92.4843 78.0703 92.4826 78.0668L86 175.772C92.3736 188.727 95.7885 195.643 95.8268 195.67C95.877 195.706 99.5092 195.864 103.898 196.021C117.197 196.496 133.676 197.514 146.177 198.632C149.072 198.89 151.563 199.023 151.713 198.926C151.863 198.83 151.945 154.144 151.894 99.6252L151.803 0.5H124.763H97.7238V0.5Z" fill="#B1060F"/>
<path d="M0.5 0.5V99.7256C0.5 154.3 0.574192 199.005 0.665028 199.07C0.755858 199.136 5.4515 198.817 11.0998 198.361C16.7481 197.906 24.5544 197.34 28.447 197.103C34.4171 196.741 52.2419 195.916 54.306 195.907C54.9064 195.904 54.9449 193.674 55.0319 153.879L55.1237 111.854L59.4366 120.637C60.1031 121.994 60.3122 122.418 60.9615 123.74L67.4424 26.0594C66.0692 23.265 66.7891 24.7319 65.2154 21.5294C59.9201 10.7535 55.4268 1.61351 55.2298 1.2184L54.8714 0.5H27.686H0.5Z" fill="#B1060F"/>
<path d="M0.5 0.5L0.500015 56.1982L55.0137 160.279C55.0194 157.894 55.0259 156.605 55.0319 153.879L55.1237 111.854L59.4366 120.637C83.4438 169.531 96.3418 195.746 96.4176 195.801C96.4678 195.837 100.1 195.995 104.489 196.152C117.788 196.626 134.267 197.644 146.768 198.762C149.663 199.021 152.154 199.154 152.304 199.057C152.407 198.991 152.474 177.08 152.492 146.171L98.2335 33.8932L98.2074 44.5181L98.0997 88.4056L93.083 78.2174C88.1812 68.2625 84.9083 61.605 65.2154 21.5294C59.9201 10.7535 55.4268 1.61351 55.2298 1.2184L54.8714 0.5H27.686H0.5Z" fill="url(#paint0_radial_98_686)"/>
<path d="M55.1226 111.904V111.854L59.4354 120.637C83.4426 169.531 96.3406 195.746 96.4165 195.801C96.4667 195.837 100.099 195.995 104.488 196.152C117.786 196.627 134.266 197.644 146.767 198.762C149.647 199.02 151.378 199.102 151.551 199.008L98.0985 88.3852V88.4056L93.0819 78.2174C88.1801 68.2625 84.9072 61.605 65.2143 21.5294C59.919 10.7535 55.4256 1.61351 55.2286 1.2184L54.8702 0.5H27.6848H0.5L55.1226 111.904Z" fill="#E50914"/>
<path d="M97.6166 44.3875L97.5089 88.275L92.4922 78.0868C92.4905 78.0833 92.4843 78.0703 92.4826 78.0668L86 175.772C92.3736 188.727 95.7885 195.643 95.8268 195.67C95.877 195.706 99.5092 195.864 103.898 196.021C117.197 196.496 133.676 197.514 146.177 198.632C149.072 198.89 151.563 199.023 151.713 198.926C151.863 198.83 151.945 154.144 151.894 99.6252L151.803 0.5H124.763H97.7238L97.6166 44.3875Z" fill="#B1060F"/>
<path d="M0.5 0.5V99.7256C0.5 154.3 0.574192 199.005 0.665028 199.07C0.755858 199.136 5.4515 198.817 11.0998 198.361C16.7481 197.906 24.5544 197.34 28.447 197.103C34.4171 196.741 52.2419 195.916 54.306 195.907C54.9064 195.904 54.9449 193.674 55.0319 153.879L55.1237 111.854L59.4366 120.637C60.1031 121.994 60.3122 122.418 60.9615 123.74L67.4424 26.0594C66.0692 23.265 66.7891 24.7319 65.2154 21.5294C59.9201 10.7535 55.4268 1.61351 55.2298 1.2184L54.8714 0.5H27.686H0.5Z" fill="#B1060F"/>
<path d="M0.500015 56.1982L55.0137 160.279C55.0194 157.894 55.0259 156.605 55.0319 153.879L55.1237 111.854L59.4366 120.637C83.4438 169.531 96.3418 195.746 96.4176 195.801C96.4678 195.837 100.1 195.995 104.489 196.152C117.788 196.626 134.267 197.644 146.768 198.762C149.663 199.021 150.65 198.997 150.8 198.901C150.903 198.834 152.474 177.08 152.492 146.171L98.2335 33.8932L98.2074 44.5181L98.0997 88.4056L93.083 78.2174C88.1812 68.2625 84.9083 61.605 65.2154 21.5294C59.9201 10.7535 55.4268 1.61351 55.2298 1.2184L54.8714 0.5H27.686H0.5L0.500015 56.1982Z" fill="url(#paint1_radial_98_686)"/>
<path d="M55.1226 111.904V111.854L59.4354 120.637C83.4426 169.531 95.4241 195.8 95.5 195.855C95.5502 195.891 100.099 195.995 104.488 196.152C117.786 196.627 134.266 197.644 146.767 198.762C149.647 199.02 151.378 199.102 151.551 199.008L98.0985 88.3852V88.4056L93.0819 78.2174C88.1801 68.2625 84.9072 61.605 65.2143 21.5294C59.919 10.7535 55.4256 1.61351 55.2286 1.2184L54.8702 0.5H27.6848H0.5L55.1226 111.904Z" fill="#E50914"/>
</g>
<defs>
<radialGradient id="paint0_radial_98_686" cx="0" cy="0" r="1" gradientUnits="userSpaceOnUse" gradientTransform="translate(117.923 41.644) rotate(-7.38063) scale(32.8256 24.877)">
<stop/>
<stop offset="1" stop-opacity="0"/>
</radialGradient>
<radialGradient id="paint1_radial_98_686" cx="0" cy="0" r="1" gradientUnits="userSpaceOnUse" gradientTransform="translate(117.872 41.6457) rotate(-7.38063) scale(32.8256 24.8734)">
<stop/>
<stop offset="1" stop-opacity="0"/>
</radialGradient>
<clipPath id="clip0_98_686">
<rect width="152" height="200" fill="white" transform="translate(0.5 0.5)"/>
</clipPath>
</defs>
</svg>
