<svg width="215" height="225" viewBox="0 0 215 225" fill="none" xmlns="http://www.w3.org/2000/svg">
<path d="M179.916 1.24664C198.619 1.24664 213.787 17.1199 213.787 36.7037V188.299C213.787 207.877 198.619 223.753 179.916 223.753H35.0876C16.3812 223.753 1.21338 207.877 1.21338 188.299V36.7037C1.21338 17.1199 16.3812 1.24664 35.0876 1.24664H179.916Z" fill="#FFFC00"/>
<path d="M108.281 188.908C107.879 188.908 107.486 188.895 107.09 188.875C106.838 188.898 106.576 188.908 106.314 188.908C97.0887 188.908 91.1681 184.528 85.4408 180.289C81.4875 177.365 77.7556 174.604 73.3596 173.837C71.2146 173.465 69.079 173.279 67.0181 173.279C63.2987 173.279 60.368 173.88 58.2261 174.317C56.926 174.585 55.8036 174.813 54.9494 174.813C54.0577 174.813 53.0943 174.611 52.6734 173.11C52.3087 171.807 52.0468 170.551 51.7911 169.331C51.1364 166.198 50.6719 164.269 49.4185 164.067C34.787 161.701 30.5968 158.473 29.6646 156.185C29.5336 155.859 29.4557 155.53 29.4401 155.206C29.3933 154.325 29.9857 153.549 30.8181 153.408C53.3095 149.531 63.3953 125.467 63.8162 124.445C63.8256 124.419 63.838 124.39 63.8505 124.364C65.2286 121.443 65.4967 118.907 64.6549 116.829C63.1116 113.023 58.0765 111.349 54.7436 110.243C53.9299 109.972 53.1567 109.718 52.5456 109.463C45.8955 106.712 45.3436 103.889 45.6055 102.45C46.0514 99.9958 49.1816 98.2858 51.7163 98.2858C52.4084 98.2858 53.0195 98.4164 53.5339 98.6676C56.527 100.133 59.2207 100.877 61.5496 100.877C64.764 100.877 66.167 99.4639 66.3385 99.2779C66.2543 97.6853 66.1545 96.021 66.0516 94.3012C65.3813 83.1729 64.5489 69.3393 67.916 61.445C77.9988 37.782 99.3802 35.9414 105.694 35.9414C105.856 35.9414 108.462 35.912 108.462 35.912H108.836C115.162 35.912 136.593 37.7526 146.682 61.432C150.047 69.3295 149.214 83.1729 148.544 94.2946L148.516 94.7809C148.422 96.3278 148.332 97.8322 148.257 99.2746C148.419 99.4476 149.71 100.746 152.622 100.864H152.625C154.842 100.776 157.386 100.035 160.179 98.6676C160.996 98.2662 161.906 98.1814 162.524 98.1814C163.471 98.1814 164.429 98.3739 165.224 98.7198L165.274 98.7427C167.531 99.5814 169.012 101.236 169.043 102.969C169.074 104.601 167.883 107.051 162.05 109.463C161.445 109.714 160.672 109.969 159.852 110.243C156.516 111.349 151.484 113.023 149.941 116.829C149.099 118.907 149.367 121.44 150.745 124.361C150.757 124.39 150.77 124.416 150.782 124.445C151.2 125.467 161.277 149.525 183.78 153.405C184.61 153.549 185.205 154.325 185.158 155.203C185.14 155.533 185.062 155.866 184.928 156.189C183.999 158.46 179.815 161.684 165.18 164.05C163.983 164.243 163.518 165.875 162.804 169.295C162.546 170.538 162.284 171.762 161.922 173.048C161.61 174.164 160.946 174.686 159.827 174.686H159.646C158.87 174.686 157.769 174.539 156.372 174.252C153.894 173.746 151.116 173.279 147.58 173.279C145.516 173.279 143.381 173.465 141.233 173.837C136.843 174.604 133.114 177.359 129.167 180.279C123.43 184.528 117.51 188.908 108.281 188.908Z" fill="white"/>
<path d="M108.836 37.6374C114.825 37.6374 135.455 39.3213 145.176 62.1359C148.378 69.6451 147.558 83.2535 146.9 94.186C146.794 95.9221 146.694 97.6028 146.613 99.2084L146.576 99.897L147.019 100.413C147.193 100.618 148.858 102.439 152.559 102.589L152.621 102.593L152.68 102.589C155.128 102.491 157.884 101.698 160.88 100.23C161.317 100.014 161.906 99.91 162.526 99.91C163.234 99.91 163.985 100.047 164.606 100.321L164.699 100.36C166.268 100.935 167.377 102.021 167.396 103.004C167.406 103.562 167.006 105.559 161.444 107.86C160.899 108.085 160.182 108.323 159.352 108.597C155.733 109.801 150.264 111.616 148.422 116.152C147.387 118.714 147.667 121.733 149.267 125.127C149.924 126.729 160.253 151.097 183.512 155.108C183.505 155.222 183.477 155.349 183.415 155.499C183.022 156.472 180.516 159.826 164.927 162.343C162.486 162.737 161.89 165.599 161.195 168.928C160.949 170.116 160.69 171.317 160.341 172.56C160.235 172.936 160.216 172.958 159.829 172.958H159.645C158.956 172.958 157.903 172.808 156.687 172.56C154.476 172.107 151.449 171.552 147.58 171.552C145.422 171.552 143.196 171.751 140.964 172.136C136.194 172.968 132.312 175.84 128.203 178.878C122.688 182.964 116.982 187.184 108.281 187.184C107.904 187.184 107.533 187.171 107.158 187.151L107.062 187.148L106.962 187.154C106.75 187.174 106.535 187.184 106.314 187.184C97.6119 187.184 91.9065 182.964 86.3912 178.882C82.282 175.84 78.4004 172.968 73.6334 172.136C71.4011 171.751 69.1751 171.552 67.0176 171.552C63.1485 171.552 60.1212 172.169 57.9076 172.622C56.6917 172.874 55.641 173.086 54.9488 173.086C54.3876 173.086 54.3752 173.053 54.2567 172.626C53.9075 171.382 53.6487 170.149 53.4024 168.961C52.7072 165.632 52.1055 162.754 49.6705 162.359C34.0787 159.84 31.5752 156.478 31.1792 155.509C31.1169 155.359 31.0919 155.225 31.0857 155.111C54.3409 151.1 64.673 126.735 65.3309 125.127C66.9272 121.733 67.2109 118.717 66.1727 116.155C64.3332 111.616 58.8647 109.801 55.2419 108.597C54.4126 108.323 53.6955 108.085 53.153 107.86C48.4515 105.915 47.008 103.96 47.2262 102.772C47.4725 101.405 49.7391 100.014 51.7157 100.014C52.1585 100.014 52.5482 100.086 52.835 100.23C56.0463 101.803 58.9801 102.602 61.5491 102.602C65.5897 102.602 67.3917 100.635 67.5819 100.409L68.0215 99.897L67.9841 99.2117C67.903 97.6061 67.8001 95.9287 67.6973 94.1958C67.0394 83.2601 66.2194 69.6614 69.4214 62.149C79.105 39.4193 99.6322 37.6668 105.693 37.6668C105.843 37.6668 108.477 37.6407 108.477 37.6407C108.589 37.6374 108.708 37.6374 108.836 37.6374ZM108.836 34.188H108.83H108.44C108.44 34.188 105.893 34.2141 105.69 34.2141C99.1302 34.2141 76.8977 36.1297 66.4096 60.7424C62.8804 69.025 63.7253 83.0904 64.4049 94.3916C64.486 95.7231 64.5702 97.1068 64.6419 98.4448C64.0994 98.758 63.1079 99.1497 61.5491 99.1497C59.4664 99.1497 57.0065 98.4643 54.2349 97.1035C53.4991 96.7445 52.6511 96.5618 51.7157 96.5618C48.4702 96.5618 44.5886 98.7972 43.9869 102.126C43.5504 104.525 44.5761 108.023 51.9402 111.068C52.6043 111.345 53.4024 111.609 54.2473 111.887C57.2903 112.898 61.8889 114.426 63.1391 117.503C63.7845 119.099 63.5257 121.152 62.3722 123.599C62.3472 123.655 62.3223 123.71 62.3005 123.769C61.8951 124.754 52.1616 147.98 30.5494 151.704C28.8877 151.991 27.6998 153.544 27.7934 155.303C27.8214 155.829 27.9399 156.348 28.1426 156.854C29.7669 160.822 36.6072 163.733 49.0657 165.756C49.4834 166.344 49.9168 168.426 50.1818 169.695C50.4406 170.948 50.7087 172.237 51.0922 173.601C51.4663 174.939 52.4422 176.538 54.9488 176.538C55.9621 176.538 57.1593 176.294 58.5405 176.01C60.6169 175.586 63.4603 175.005 67.0176 175.005C68.9911 175.005 71.0363 175.184 73.0941 175.54C77.1128 176.241 80.5298 178.771 84.4831 181.695C90.1481 185.888 96.5644 190.633 106.314 190.633C106.582 190.633 106.85 190.627 107.118 190.604C107.433 190.62 107.844 190.633 108.281 190.633C118.033 190.633 124.449 185.888 130.108 181.698C134.071 178.767 137.485 176.241 141.503 175.54C143.561 175.184 145.606 175.005 147.58 175.005C150.975 175.005 153.659 175.455 156.054 175.945C157.557 176.255 158.763 176.411 159.645 176.411H159.739H159.829C161.681 176.411 162.988 175.386 163.505 173.53C163.882 172.195 164.151 170.938 164.416 169.666C164.681 168.399 165.111 166.327 165.526 165.74C177.987 163.716 184.827 160.812 186.449 156.86C186.654 156.354 186.776 155.829 186.804 155.3C186.898 153.538 185.71 151.991 184.048 151.704C162.426 147.974 152.699 124.751 152.297 123.766C152.275 123.71 152.25 123.655 152.222 123.599C151.069 121.148 150.813 119.099 151.458 117.503C152.705 114.426 157.304 112.898 160.347 111.89C161.198 111.606 161.996 111.339 162.654 111.068C168.045 108.839 170.748 106.104 170.692 102.935C170.645 100.445 168.793 98.2261 165.85 97.1263L165.84 97.1231C164.852 96.6923 163.677 96.4573 162.526 96.4573C161.737 96.4573 160.571 96.5683 159.48 97.1035C156.917 98.3599 154.613 99.0452 152.627 99.1366C151.309 99.0746 150.448 98.7254 149.956 98.4415C150.018 97.296 150.09 96.1147 150.161 94.8811L150.189 94.4014C150.872 83.0936 151.717 69.0152 148.188 60.7294C137.693 36.1036 115.414 34.188 108.836 34.188Z" fill="#030303"/>
</svg>
