<svg width="220" height="210" viewBox="0 0 220 210" fill="none" xmlns="http://www.w3.org/2000/svg">
<path d="M49.6551 54.6309C45.816 43.5123 58.3092 33.8863 68.0816 40.4332L68.7026 40.8493C75.8826 45.6595 85.6506 41.701 87.4562 33.2494V33.2494C89.8502 22.0439 105.059 20.184 110.347 30.3494V30.3494C114.075 37.5176 123.621 39.3108 129.61 33.8874L132.347 31.4088C140.656 23.8856 153.744 31.3539 151.494 42.3341V42.3341C149.91 50.0647 156.341 57.0859 164.181 56.1842L172.186 55.2635C183.243 53.9917 189.099 67.9574 180.442 74.9525V74.9525C173.866 80.2654 175.393 90.6829 183.217 93.8856L186.659 95.2948C197.173 99.5988 196.379 114.745 185.473 117.927L182.073 118.919C174.794 121.042 172.487 130.211 177.894 135.527V135.527C185.878 143.376 176.784 156.378 166.672 151.571L163.568 150.095C156.817 146.885 149.139 152.24 149.817 159.684L149.976 161.428C150.908 171.657 137.025 175.643 132.389 166.477V166.477C129.25 160.272 120.666 159.57 116.56 165.181L111.655 171.885C104.607 181.517 89.3522 176.532 89.3522 164.597V164.597C89.3522 155.01 78.8985 149.083 70.6719 154.007L60.3037 160.212C51.7408 165.337 41.9608 155.727 46.9337 147.076V147.076C50.6447 140.619 45.984 132.565 38.537 132.565H36.4046C25.572 132.565 21.351 118.491 30.3955 112.529L35.0297 109.475C41.6593 105.105 41.5779 95.352 34.8763 91.0933L34.3747 90.7746C25.2731 84.9909 29.3701 70.9047 40.1539 70.9047V70.9047C47.5574 70.9047 52.7556 63.6105 50.3393 56.6125L49.6551 54.6309Z" fill="#F3EFE0"/>
<circle cx="110.401" cy="96.4007" r="54.4007" fill="#22A39F" fill-opacity="0.73"/>
<path d="M80.4248 78.9449V81.2278H79.2176V78.9449H80.4248ZM80.2777 91.5821V93.6638H79.0705V91.5821H80.2777ZM81.129 89.0438C81.129 88.7498 81.0748 88.4996 80.9665 88.2932C80.8633 88.0868 80.6931 87.9037 80.4557 87.7438C80.2236 87.5838 79.9089 87.429 79.5116 87.2794C78.8409 87.0215 78.2502 86.748 77.7395 86.4591C77.2339 86.1651 76.8392 85.8014 76.5555 85.368C76.2717 84.9295 76.1298 84.3749 76.1298 83.7042C76.1298 83.0645 76.282 82.5099 76.5864 82.0404C76.8908 81.5709 77.3113 81.2098 77.8478 80.957C78.3895 80.699 79.0189 80.57 79.736 80.57C80.2829 80.57 80.7782 80.6526 81.2219 80.8177C81.6655 80.9776 82.0473 81.2149 82.3672 81.5296C82.687 81.8392 82.9321 82.2184 83.1023 82.6672C83.2726 83.116 83.3577 83.6294 83.3577 84.2072H81.1367C81.1367 83.8977 81.1032 83.6242 81.0361 83.3869C80.9691 83.1496 80.871 82.951 80.7421 82.791C80.6182 82.6311 80.4686 82.5124 80.2932 82.4351C80.1178 82.3525 79.9243 82.3112 79.7128 82.3112C79.3981 82.3112 79.1402 82.3731 78.939 82.497C78.7378 82.6208 78.5907 82.7884 78.4979 83C78.4102 83.2063 78.3663 83.4437 78.3663 83.7119C78.3663 83.975 78.4127 84.2046 78.5056 84.4007C78.6036 84.5967 78.7713 84.7773 79.0086 84.9424C79.2459 85.1023 79.571 85.2674 79.9837 85.4376C80.6544 85.6956 81.2425 85.9742 81.7481 86.2734C82.2537 86.5726 82.6483 86.9389 82.9321 87.3723C83.2158 87.8057 83.3577 88.3577 83.3577 89.0284C83.3577 89.6939 83.203 90.2614 82.8934 90.7309C82.5839 91.1952 82.1505 91.5512 81.5933 91.7988C81.0361 92.0413 80.3912 92.1625 79.6587 92.1625C79.184 92.1625 78.712 92.1006 78.2425 91.9768C77.773 91.8478 77.3474 91.6414 76.9656 91.3577C76.5838 91.0739 76.2795 90.6973 76.0525 90.2279C75.8255 89.7532 75.712 89.1702 75.712 88.4789H77.9407C77.9407 88.8555 77.9897 89.1702 78.0877 89.423C78.1857 89.6707 78.3147 89.8693 78.4746 90.0189C78.6397 90.1634 78.8255 90.2665 79.0318 90.3285C79.2382 90.3904 79.4471 90.4213 79.6587 90.4213C79.9888 90.4213 80.2597 90.362 80.4712 90.2433C80.6879 90.1247 80.8504 89.9622 80.9587 89.7558C81.0722 89.5443 81.129 89.307 81.129 89.0438ZM90.6243 80.6165H90.9493V82.3964H90.8178C90.2296 82.3964 89.706 82.4841 89.2468 82.6595C88.7877 82.8349 88.3982 83.0851 88.0783 83.4101C87.7636 83.73 87.5211 84.1169 87.3509 84.5709C87.1858 85.0249 87.1032 85.5331 87.1032 86.0954V87.9682C87.1032 88.3706 87.1419 88.7266 87.2193 89.0361C87.3018 89.3405 87.4179 89.5959 87.5675 89.8022C87.7223 90.0034 87.9029 90.1556 88.1092 90.2588C88.3156 90.3568 88.5478 90.4058 88.8057 90.4058C89.0482 90.4058 89.2675 90.3543 89.4635 90.2511C89.6647 90.1479 89.835 90.0034 89.9743 89.8177C90.1187 89.6268 90.227 89.405 90.2993 89.1522C90.3767 88.8942 90.4154 88.6131 90.4154 88.3087C90.4154 88.0043 90.3767 87.7231 90.2993 87.4652C90.227 87.2072 90.1187 86.9854 89.9743 86.7996C89.8298 86.6088 89.6544 86.4617 89.448 86.3585C89.2417 86.2554 89.0095 86.2038 88.7515 86.2038C88.4007 86.2038 88.0912 86.2863 87.8229 86.4514C87.5598 86.6113 87.3534 86.8177 87.2038 87.0705C87.0542 87.3233 86.9742 87.589 86.9639 87.8676L86.2907 87.4342C86.3061 87.037 86.3887 86.6603 86.5383 86.3044C86.6931 85.9484 86.9046 85.6337 87.1729 85.3603C87.4463 85.0817 87.7739 84.865 88.1557 84.7102C88.5374 84.5503 88.9682 84.4703 89.448 84.4703C89.9743 84.4703 90.436 84.5709 90.8332 84.7721C91.2357 84.9733 91.571 85.2493 91.8393 85.6002C92.1075 85.951 92.3087 86.356 92.4429 86.8151C92.577 87.2743 92.6441 87.7644 92.6441 88.2855C92.6441 88.8323 92.5538 89.3405 92.3732 89.81C92.1978 90.2794 91.9424 90.6896 91.6071 91.0404C91.2769 91.3912 90.8797 91.6647 90.4154 91.8607C89.951 92.0567 89.43 92.1548 88.8522 92.1548C88.2537 92.1548 87.7094 92.0464 87.2193 91.8298C86.7343 91.6079 86.3165 91.2984 85.9656 90.9011C85.6148 90.5039 85.344 90.0318 85.1531 89.4849C84.9674 88.9381 84.8745 88.3396 84.8745 87.6896V86.8229C84.8745 85.9149 85.0061 85.0842 85.2692 84.331C85.5374 83.5726 85.9218 82.9174 86.4222 82.3654C86.9227 81.8082 87.5263 81.3774 88.2331 81.0731C88.9399 80.7687 89.7369 80.6165 90.6243 80.6165ZM96.0723 86.8693L94.2924 86.4437L94.9347 80.7326H101.265V82.5357H96.7688L96.4902 85.0352C96.6398 84.9475 96.8668 84.8547 97.1712 84.7566C97.4756 84.6535 97.8161 84.6019 98.1927 84.6019C98.7395 84.6019 99.2245 84.687 99.6475 84.8572C100.071 85.0275 100.429 85.2751 100.723 85.6002C101.022 85.9252 101.249 86.3224 101.404 86.7919C101.559 87.2614 101.636 87.7928 101.636 88.3861C101.636 88.8865 101.559 89.3637 101.404 89.8177C101.249 90.2665 101.015 90.669 100.7 91.0249C100.385 91.3758 99.9906 91.6518 99.516 91.853C99.0414 92.0542 98.479 92.1548 97.829 92.1548C97.344 92.1548 96.8745 92.0825 96.4205 91.9381C95.9717 91.7936 95.5667 91.5795 95.2056 91.2958C94.8496 91.012 94.5633 90.669 94.3466 90.2665C94.1351 89.859 94.0241 89.3947 94.0138 88.8736H96.2271C96.258 89.1935 96.3406 89.4695 96.4747 89.7016C96.614 89.9286 96.7971 90.104 97.0241 90.2279C97.2511 90.3517 97.5168 90.4136 97.8212 90.4136C98.105 90.4136 98.3475 90.3594 98.5487 90.2511C98.7499 90.1427 98.9124 89.9931 99.0362 89.8022C99.16 89.6062 99.2503 89.3792 99.307 89.1212C99.369 88.8581 99.3999 88.5744 99.3999 88.27C99.3999 87.9656 99.3638 87.6896 99.2916 87.4419C99.2193 87.1943 99.1084 86.9802 98.9588 86.7996C98.8092 86.6191 98.6183 86.4798 98.3861 86.3818C98.1591 86.2837 97.8935 86.2347 97.5891 86.2347C97.1763 86.2347 96.8565 86.2992 96.6295 86.4282C96.4076 86.5572 96.2219 86.7042 96.0723 86.8693ZM105.173 86.8693L103.393 86.4437L104.035 80.7326H110.366V82.5357H105.869L105.591 85.0352C105.74 84.9475 105.967 84.8547 106.272 84.7566C106.576 84.6535 106.917 84.6019 107.293 84.6019C107.84 84.6019 108.325 84.687 108.748 84.8572C109.171 85.0275 109.53 85.2751 109.824 85.6002C110.123 85.9252 110.35 86.3224 110.505 86.7919C110.66 87.2614 110.737 87.7928 110.737 88.3861C110.737 88.8865 110.66 89.3637 110.505 89.8177C110.35 90.2665 110.115 90.669 109.801 91.0249C109.486 91.3758 109.091 91.6518 108.617 91.853C108.142 92.0542 107.58 92.1548 106.93 92.1548C106.445 92.1548 105.975 92.0825 105.521 91.9381C105.072 91.7936 104.667 91.5795 104.306 91.2958C103.95 91.012 103.664 90.669 103.447 90.2665C103.236 89.859 103.125 89.3947 103.114 88.8736H105.328C105.359 89.1935 105.441 89.4695 105.575 89.7016C105.715 89.9286 105.898 90.104 106.125 90.2279C106.352 90.3517 106.617 90.4136 106.922 90.4136C107.206 90.4136 107.448 90.3594 107.649 90.2511C107.85 90.1427 108.013 89.9931 108.137 89.8022C108.261 89.6062 108.351 89.3792 108.408 89.1212C108.47 88.8581 108.501 88.5744 108.501 88.27C108.501 87.9656 108.464 87.6896 108.392 87.4419C108.32 87.1943 108.209 86.9802 108.059 86.7996C107.91 86.6191 107.719 86.4798 107.487 86.3818C107.26 86.2837 106.994 86.2347 106.69 86.2347C106.277 86.2347 105.957 86.2992 105.73 86.4282C105.508 86.5572 105.323 86.7042 105.173 86.8693ZM119.768 88.9123C119.768 89.6191 119.603 90.215 119.273 90.6999C118.943 91.1797 118.489 91.5434 117.911 91.7911C117.338 92.0335 116.688 92.1548 115.961 92.1548C115.233 92.1548 114.581 92.0335 114.003 91.7911C113.425 91.5434 112.968 91.1797 112.633 90.6999C112.298 90.215 112.13 89.6191 112.13 88.9123C112.13 88.4376 112.225 88.0094 112.416 87.6277C112.607 87.2407 112.873 86.9106 113.213 86.6371C113.559 86.3585 113.964 86.147 114.428 86.0026C114.893 85.8529 115.398 85.7781 115.945 85.7781C116.678 85.7781 117.333 85.9071 117.911 86.1651C118.489 86.423 118.943 86.7867 119.273 87.2562C119.603 87.7257 119.768 88.2777 119.768 88.9123ZM117.524 88.7653C117.524 88.4196 117.457 88.1229 117.323 87.8753C117.194 87.6225 117.01 87.429 116.773 87.2949C116.536 87.1608 116.26 87.0937 115.945 87.0937C115.63 87.0937 115.354 87.1608 115.117 87.2949C114.88 87.429 114.694 87.6225 114.56 87.8753C114.431 88.1229 114.366 88.4196 114.366 88.7653C114.366 89.1058 114.431 89.3998 114.56 89.6475C114.694 89.8951 114.88 90.086 115.117 90.2201C115.36 90.3491 115.641 90.4136 115.961 90.4136C116.28 90.4136 116.556 90.3491 116.789 90.2201C117.026 90.086 117.207 89.8951 117.33 89.6475C117.459 89.3998 117.524 89.1058 117.524 88.7653ZM119.528 83.7197C119.528 84.2923 119.376 84.8005 119.072 85.2442C118.767 85.6827 118.344 86.0258 117.802 86.2734C117.266 86.521 116.652 86.6449 115.961 86.6449C115.264 86.6449 114.645 86.521 114.103 86.2734C113.562 86.0258 113.139 85.6827 112.834 85.2442C112.53 84.8005 112.378 84.2923 112.378 83.7197C112.378 83.0387 112.53 82.466 112.834 82.0017C113.144 81.5322 113.567 81.1762 114.103 80.9338C114.645 80.6913 115.259 80.57 115.945 80.57C116.642 80.57 117.258 80.6913 117.795 80.9338C118.336 81.1762 118.759 81.5322 119.064 82.0017C119.373 82.466 119.528 83.0387 119.528 83.7197ZM117.299 83.8203C117.299 83.5159 117.245 83.2528 117.137 83.0309C117.029 82.8039 116.874 82.6285 116.673 82.5047C116.476 82.3809 116.234 82.319 115.945 82.319C115.667 82.319 115.427 82.3783 115.225 82.497C115.029 82.6156 114.877 82.7884 114.769 83.0154C114.666 83.2373 114.614 83.5056 114.614 83.8203C114.614 84.1247 114.666 84.3929 114.769 84.6251C114.877 84.8521 115.032 85.0301 115.233 85.159C115.434 85.288 115.677 85.3525 115.961 85.3525C116.244 85.3525 116.484 85.288 116.68 85.159C116.881 85.0301 117.034 84.8521 117.137 84.6251C117.245 84.3929 117.299 84.1247 117.299 83.8203ZM121.478 90.9243C121.478 90.5941 121.592 90.3181 121.819 90.0963C122.051 89.8745 122.358 89.7635 122.74 89.7635C123.121 89.7635 123.426 89.8745 123.653 90.0963C123.885 90.3181 124.001 90.5941 124.001 90.9243C124.001 91.2545 123.885 91.5305 123.653 91.7524C123.426 91.9742 123.121 92.0851 122.74 92.0851C122.358 92.0851 122.051 91.9742 121.819 91.7524C121.592 91.5305 121.478 91.2545 121.478 90.9243ZM133.527 80.7326V81.932L129.17 92H126.818L131.175 82.4737H125.564V80.7326H133.527ZM137.072 86.8693L135.292 86.4437L135.934 80.7326H142.264V82.5357H137.768L137.489 85.0352C137.639 84.9475 137.866 84.8547 138.17 84.7566C138.475 84.6535 138.815 84.6019 139.192 84.6019C139.739 84.6019 140.224 84.687 140.647 84.8572C141.07 85.0275 141.428 85.2751 141.722 85.6002C142.022 85.9252 142.249 86.3224 142.403 86.7919C142.558 87.2614 142.636 87.7928 142.636 88.3861C142.636 88.8865 142.558 89.3637 142.403 89.8177C142.249 90.2665 142.014 90.669 141.699 91.0249C141.385 91.3758 140.99 91.6518 140.515 91.853C140.041 92.0542 139.478 92.1548 138.828 92.1548C138.343 92.1548 137.874 92.0825 137.42 91.9381C136.971 91.7936 136.566 91.5795 136.205 91.2958C135.849 91.012 135.563 90.669 135.346 90.2665C135.134 89.859 135.023 89.3947 135.013 88.8736H137.226C137.257 89.1935 137.34 89.4695 137.474 89.7016C137.613 89.9286 137.796 90.104 138.023 90.2279C138.25 90.3517 138.516 90.4136 138.821 90.4136C139.104 90.4136 139.347 90.3594 139.548 90.2511C139.749 90.1427 139.912 89.9931 140.035 89.8022C140.159 89.6062 140.25 89.3792 140.306 89.1212C140.368 88.8581 140.399 88.5744 140.399 88.27C140.399 87.9656 140.363 87.6896 140.291 87.4419C140.219 87.1943 140.108 86.9802 139.958 86.7996C139.808 86.6191 139.618 86.4798 139.385 86.3818C139.158 86.2837 138.893 86.2347 138.588 86.2347C138.176 86.2347 137.856 86.2992 137.629 86.4282C137.407 86.5572 137.221 86.7042 137.072 86.8693Z" fill="#222222"/>
<path d="M102.44 108.427V109.434H97.8064V108.427H102.44ZM100.667 106.532V111.454H99.5848V106.532H100.667ZM106.35 105.348V112.132H105.231V106.676L103.573 107.238V106.314L106.215 105.348H106.35ZM112.08 105.33H112.219V106.244H112.14C111.741 106.244 111.395 106.306 111.105 106.43C110.817 106.554 110.58 106.724 110.394 106.941C110.208 107.158 110.069 107.411 109.976 107.702C109.886 107.99 109.842 108.297 109.842 108.622V109.685C109.842 109.954 109.871 110.193 109.93 110.4C109.989 110.604 110.071 110.776 110.176 110.915C110.284 111.052 110.408 111.155 110.547 111.227C110.687 111.298 110.837 111.333 110.998 111.333C111.165 111.333 111.317 111.299 111.453 111.231C111.589 111.16 111.705 111.062 111.801 110.939C111.897 110.815 111.97 110.668 112.019 110.498C112.069 110.327 112.094 110.142 112.094 109.94C112.094 109.748 112.069 109.569 112.019 109.402C111.973 109.232 111.903 109.083 111.81 108.956C111.717 108.826 111.601 108.725 111.462 108.654C111.326 108.58 111.168 108.543 110.988 108.543C110.766 108.543 110.563 108.595 110.38 108.701C110.201 108.806 110.055 108.944 109.944 109.114C109.835 109.281 109.777 109.459 109.767 109.648L109.34 109.509C109.365 109.221 109.428 108.962 109.53 108.733C109.636 108.504 109.773 108.309 109.944 108.148C110.114 107.987 110.311 107.865 110.533 107.781C110.759 107.695 111.007 107.651 111.276 107.651C111.604 107.651 111.889 107.713 112.131 107.837C112.372 107.961 112.572 108.13 112.73 108.343C112.891 108.554 113.01 108.795 113.087 109.067C113.168 109.337 113.208 109.618 113.208 109.913C113.208 110.238 113.158 110.541 113.059 110.823C112.96 111.101 112.815 111.346 112.623 111.556C112.434 111.767 112.203 111.931 111.931 112.048C111.662 112.166 111.355 112.225 111.012 112.225C110.649 112.225 110.326 112.155 110.041 112.016C109.76 111.877 109.52 111.685 109.322 111.44C109.127 111.196 108.978 110.914 108.876 110.595C108.774 110.276 108.723 109.939 108.723 109.583V109.119C108.723 108.605 108.788 108.12 108.918 107.665C109.048 107.207 109.247 106.803 109.517 106.453C109.789 106.104 110.137 105.83 110.561 105.632C110.985 105.43 111.491 105.33 112.08 105.33ZM114.058 107.029V106.672C114.058 106.415 114.113 106.181 114.225 105.97C114.336 105.76 114.499 105.591 114.712 105.464C114.926 105.337 115.183 105.274 115.483 105.274C115.793 105.274 116.053 105.337 116.263 105.464C116.477 105.591 116.639 105.76 116.751 105.97C116.862 106.181 116.918 106.415 116.918 106.672V107.029C116.918 107.28 116.862 107.51 116.751 107.721C116.642 107.931 116.481 108.1 116.268 108.227C116.057 108.354 115.799 108.417 115.492 108.417C115.189 108.417 114.929 108.354 114.712 108.227C114.499 108.1 114.336 107.931 114.225 107.721C114.113 107.51 114.058 107.28 114.058 107.029ZM114.833 106.672V107.029C114.833 107.153 114.856 107.271 114.903 107.382C114.952 107.493 115.026 107.583 115.126 107.651C115.225 107.719 115.347 107.753 115.492 107.753C115.641 107.753 115.762 107.719 115.854 107.651C115.95 107.583 116.022 107.493 116.068 107.382C116.115 107.271 116.138 107.153 116.138 107.029V106.672C116.138 106.545 116.113 106.425 116.063 106.314C116.017 106.2 115.946 106.108 115.85 106.04C115.754 105.972 115.632 105.938 115.483 105.938C115.341 105.938 115.22 105.972 115.121 106.04C115.025 106.108 114.952 106.2 114.903 106.314C114.856 106.425 114.833 106.545 114.833 106.672ZM117.317 110.837V110.474C117.317 110.221 117.373 109.988 117.484 109.778C117.599 109.567 117.763 109.399 117.976 109.272C118.19 109.145 118.447 109.081 118.747 109.081C119.057 109.081 119.317 109.145 119.527 109.272C119.741 109.399 119.902 109.567 120.01 109.778C120.122 109.988 120.177 110.221 120.177 110.474V110.837C120.177 111.09 120.122 111.322 120.01 111.533C119.902 111.743 119.742 111.912 119.532 112.039C119.321 112.166 119.064 112.229 118.761 112.229C118.455 112.229 118.193 112.166 117.976 112.039C117.763 111.912 117.599 111.743 117.484 111.533C117.373 111.322 117.317 111.09 117.317 110.837ZM118.097 110.474V110.837C118.097 110.96 118.122 111.078 118.171 111.189C118.224 111.301 118.3 111.392 118.399 111.463C118.498 111.531 118.617 111.565 118.756 111.565C118.914 111.565 119.041 111.531 119.137 111.463C119.233 111.392 119.301 111.302 119.342 111.194C119.385 111.083 119.407 110.963 119.407 110.837V110.474C119.407 110.347 119.382 110.228 119.332 110.117C119.286 110.005 119.213 109.916 119.114 109.848C119.018 109.779 118.896 109.745 118.747 109.745C118.602 109.745 118.481 109.779 118.385 109.848C118.289 109.916 118.216 110.005 118.167 110.117C118.12 110.228 118.097 110.347 118.097 110.474ZM119.026 106.337L115.724 111.621L115.153 111.292L118.455 106.008L119.026 106.337Z" fill="#434242"/>
</svg>
