<svg width="123" height="86" viewBox="0 0 123 86" fill="none" xmlns="http://www.w3.org/2000/svg">
<g style="mix-blend-mode:hard-light">
<path d="M61.3856 39.4965C52.752 32.369 33.7878 23.8909 27 46.9992V81.1364H107.829L106.489 15.1127C102.023 14.4875 91.9308 16.163 87.2865 27.8672L81.0346 39.4965C79.3972 42.4975 73.175 46.699 61.3856 39.4965Z" fill="url(#paint0_linear_25_379)"/>
<path d="M61.3856 39.4965C52.752 32.369 33.7878 23.8909 27 46.9992V81.1364H107.829L106.489 15.1127C102.023 14.4875 91.9308 16.163 87.2865 27.8672L81.0346 39.4965C79.3972 42.4975 73.175 46.699 61.3856 39.4965Z" fill="#1CB8B3" fill-opacity="0.5"/>
</g>
<g style="mix-blend-mode:hard-light">
<rect width="123" height="86" rx="13.2273" fill="#222222"/>
</g>
<path d="M13.9428 17.477V25H12.9455V17.477H13.9428ZM16.5675 20.603V25H15.6117V19.4094H16.5159L16.5675 20.603ZM16.3402 21.9929L15.9423 21.9774C15.9458 21.595 16.0026 21.2419 16.1129 20.9181C16.2231 20.5909 16.3781 20.3067 16.5779 20.0656C16.7777 19.8245 17.0153 19.6385 17.2909 19.5076C17.5699 19.3732 17.8782 19.3061 18.2158 19.3061C18.4914 19.3061 18.7394 19.344 18.9598 19.4197C19.1803 19.4921 19.368 19.6092 19.523 19.7711C19.6815 19.933 19.802 20.1431 19.8847 20.4015C19.9674 20.6564 20.0087 20.9681 20.0087 21.3367V25H19.0477V21.3263C19.0477 21.0335 19.0046 20.7993 18.9185 20.6236C18.8324 20.4445 18.7066 20.3153 18.5413 20.2361C18.376 20.1534 18.1727 20.1121 17.9316 20.1121C17.6939 20.1121 17.4769 20.1621 17.2806 20.2619C17.0877 20.3618 16.9206 20.4996 16.7794 20.6753C16.6416 20.851 16.5331 21.0525 16.4539 21.2798C16.3781 21.5037 16.3402 21.7414 16.3402 21.9929ZM23.6979 24.318C23.9252 24.318 24.1353 24.2715 24.3282 24.1785C24.5211 24.0855 24.6796 23.958 24.8036 23.7961C24.9276 23.6308 24.9982 23.443 25.0154 23.2329H25.9248C25.9076 23.5636 25.7956 23.8719 25.589 24.1578C25.3857 24.4403 25.1188 24.6693 24.7881 24.845C24.4574 25.0172 24.094 25.1033 23.6979 25.1033C23.2776 25.1033 22.9108 25.0293 22.5973 24.8812C22.2873 24.733 22.029 24.5298 21.8223 24.2715C21.6191 24.0131 21.4658 23.7169 21.3624 23.3828C21.2625 23.0452 21.2126 22.6887 21.2126 22.3132V22.0962C21.2126 21.7207 21.2625 21.3659 21.3624 21.0318C21.4658 20.6942 21.6191 20.3963 21.8223 20.1379C22.029 19.8796 22.2873 19.6764 22.5973 19.5282C22.9108 19.3801 23.2776 19.3061 23.6979 19.3061C24.1353 19.3061 24.5177 19.3956 24.8449 19.5748C25.1722 19.7504 25.4288 19.9915 25.6148 20.2981C25.8042 20.6012 25.9076 20.9457 25.9248 21.3315H25.0154C24.9982 21.1007 24.9328 20.8923 24.8191 20.7063C24.7089 20.5203 24.5573 20.3722 24.3644 20.2619C24.1749 20.1483 23.9528 20.0914 23.6979 20.0914C23.4051 20.0914 23.1588 20.15 22.959 20.2671C22.7627 20.3808 22.6059 20.5358 22.4888 20.7321C22.3751 20.925 22.2925 21.1403 22.2408 21.378C22.1926 21.6122 22.1685 21.8516 22.1685 22.0962V22.3132C22.1685 22.5578 22.1926 22.7989 22.2408 23.0366C22.289 23.2743 22.37 23.4895 22.4836 23.6824C22.6008 23.8753 22.7575 24.0303 22.9538 24.1475C23.1536 24.2611 23.4016 24.318 23.6979 24.318ZM26.7463 22.2667V22.1479C26.7463 21.7449 26.8049 21.3711 26.922 21.0267C27.0391 20.6787 27.2079 20.3773 27.4284 20.1224C27.6488 19.8641 27.9158 19.6643 28.2292 19.5231C28.5427 19.3784 28.8941 19.3061 29.2833 19.3061C29.676 19.3061 30.029 19.3784 30.3425 19.5231C30.6594 19.6643 30.9281 19.8641 31.1485 20.1224C31.3724 20.3773 31.543 20.6787 31.6601 21.0267C31.7772 21.3711 31.8357 21.7449 31.8357 22.1479V22.2667C31.8357 22.6697 31.7772 23.0435 31.6601 23.3879C31.543 23.7324 31.3724 24.0338 31.1485 24.2921C30.9281 24.547 30.6611 24.7468 30.3477 24.8915C30.0377 25.0327 29.6863 25.1033 29.2936 25.1033C28.9009 25.1033 28.5479 25.0327 28.2344 24.8915C27.921 24.7468 27.6523 24.547 27.4284 24.2921C27.2079 24.0338 27.0391 23.7324 26.922 23.3879C26.8049 23.0435 26.7463 22.6697 26.7463 22.2667ZM27.7022 22.1479V22.2667C27.7022 22.5457 27.7349 22.8092 27.8004 23.0572C27.8658 23.3018 27.964 23.5188 28.0949 23.7083C28.2292 23.8977 28.3963 24.0476 28.5961 24.1578C28.7959 24.2646 29.0284 24.318 29.2936 24.318C29.5554 24.318 29.7845 24.2646 29.9808 24.1578C30.1806 24.0476 30.346 23.8977 30.4768 23.7083C30.6077 23.5188 30.7059 23.3018 30.7714 23.0572C30.8403 22.8092 30.8747 22.5457 30.8747 22.2667V22.1479C30.8747 21.8723 30.8403 21.6122 30.7714 21.3677C30.7059 21.1197 30.606 20.9009 30.4717 20.7115C30.3408 20.5186 30.1754 20.367 29.9757 20.2568C29.7793 20.1466 29.5485 20.0914 29.2833 20.0914C29.0215 20.0914 28.7907 20.1466 28.5909 20.2568C28.3946 20.367 28.2292 20.5186 28.0949 20.7115C27.964 20.9009 27.8658 21.1197 27.8004 21.3677C27.7349 21.6122 27.7022 21.8723 27.7022 22.1479ZM33.9852 20.5203V25H33.0241V19.4094H33.9335L33.9852 20.5203ZM33.7888 21.9929L33.3445 21.9774C33.3479 21.595 33.3979 21.2419 33.4943 20.9181C33.5908 20.5909 33.7337 20.3067 33.9232 20.0656C34.1126 19.8245 34.3486 19.6385 34.631 19.5076C34.9135 19.3732 35.2407 19.3061 35.6127 19.3061C35.8745 19.3061 36.1157 19.344 36.3361 19.4197C36.5566 19.4921 36.7477 19.6075 36.9096 19.7659C37.0715 19.9244 37.1973 20.1276 37.2868 20.3756C37.3764 20.6236 37.4212 20.9233 37.4212 21.2747V25H36.4653V21.3212C36.4653 21.0284 36.4153 20.7941 36.3154 20.6185C36.219 20.4428 36.0812 20.3153 35.9021 20.2361C35.723 20.1534 35.5129 20.1121 35.2717 20.1121C34.9893 20.1121 34.7533 20.1621 34.5639 20.2619C34.3744 20.3618 34.2229 20.4996 34.1092 20.6753C33.9955 20.851 33.9128 21.0525 33.8612 21.2798C33.8129 21.5037 33.7888 21.7414 33.7888 21.9929ZM37.4108 21.4658L36.7701 21.6622C36.7736 21.3556 36.8235 21.0611 36.92 20.7786C37.0199 20.4962 37.1628 20.2447 37.3488 20.0243C37.5383 19.8038 37.7708 19.6299 38.0464 19.5024C38.3219 19.3715 38.6371 19.3061 38.9919 19.3061C39.2916 19.3061 39.5568 19.3457 39.7876 19.4249C40.0218 19.5041 40.2182 19.6264 40.3766 19.7918C40.5385 19.9537 40.6608 20.1621 40.7435 20.417C40.8262 20.6719 40.8675 20.975 40.8675 21.3263V25H39.9064V21.316C39.9064 21.0025 39.8565 20.7597 39.7566 20.5875C39.6602 20.4118 39.5224 20.2895 39.3433 20.2206C39.1676 20.1483 38.9575 20.1121 38.7129 20.1121C38.5028 20.1121 38.3168 20.1483 38.1549 20.2206C37.993 20.293 37.8569 20.3928 37.7467 20.5203C37.6365 20.6443 37.5521 20.7873 37.4935 20.9491C37.4384 21.111 37.4108 21.2833 37.4108 21.4658ZM43.3528 19.4094V25H42.3917V19.4094H43.3528ZM42.3194 17.9265C42.3194 17.7715 42.3659 17.6406 42.4589 17.5338C42.5553 17.427 42.6966 17.3737 42.8826 17.3737C43.0651 17.3737 43.2047 17.427 43.3011 17.5338C43.401 17.6406 43.4509 17.7715 43.4509 17.9265C43.4509 18.0746 43.401 18.2021 43.3011 18.3089C43.2047 18.4122 43.0651 18.4639 42.8826 18.4639C42.6966 18.4639 42.5553 18.4122 42.4589 18.3089C42.3659 18.2021 42.3194 18.0746 42.3194 17.9265ZM45.8432 20.603V25H44.8873V19.4094H45.7915L45.8432 20.603ZM45.6159 21.9929L45.218 21.9774C45.2215 21.595 45.2783 21.2419 45.3885 20.9181C45.4988 20.5909 45.6538 20.3067 45.8536 20.0656C46.0533 19.8245 46.291 19.6385 46.5666 19.5076C46.8456 19.3732 47.1539 19.3061 47.4915 19.3061C47.767 19.3061 48.015 19.344 48.2355 19.4197C48.4559 19.4921 48.6437 19.6092 48.7987 19.7711C48.9571 19.933 49.0777 20.1431 49.1604 20.4015C49.243 20.6564 49.2844 20.9681 49.2844 21.3367V25H48.3233V21.3263C48.3233 21.0335 48.2803 20.7993 48.1942 20.6236C48.108 20.4445 47.9823 20.3153 47.817 20.2361C47.6516 20.1534 47.4484 20.1121 47.2073 20.1121C46.9696 20.1121 46.7526 20.1621 46.5562 20.2619C46.3634 20.3618 46.1963 20.4996 46.0551 20.6753C45.9173 20.851 45.8088 21.0525 45.7295 21.2798C45.6538 21.5037 45.6159 21.7414 45.6159 21.9929ZM54.3583 19.4094H55.2263V24.8812C55.2263 25.3737 55.1264 25.794 54.9266 26.1419C54.7268 26.4898 54.4478 26.7533 54.0896 26.9324C53.7348 27.115 53.3249 27.2063 52.8599 27.2063C52.667 27.2063 52.4396 27.1753 52.1778 27.1133C51.9195 27.0547 51.6646 26.9531 51.4131 26.8084C51.1651 26.6672 50.9567 26.476 50.7879 26.2349L51.2891 25.6665C51.5234 25.949 51.7679 26.1453 52.0228 26.2556C52.2812 26.3658 52.5361 26.4209 52.7875 26.4209C53.0907 26.4209 53.3524 26.3641 53.5729 26.2504C53.7934 26.1367 53.9639 25.9679 54.0844 25.744C54.2084 25.5236 54.2704 25.2515 54.2704 24.9277V20.6391L54.3583 19.4094ZM50.5089 22.2667V22.1582C50.5089 21.7311 50.5589 21.3436 50.6588 20.9957C50.7621 20.6443 50.9085 20.3429 51.098 20.0914C51.2909 19.84 51.5234 19.6471 51.7955 19.5127C52.0676 19.375 52.3742 19.3061 52.7152 19.3061C53.0665 19.3061 53.3731 19.3681 53.6349 19.4921C53.9001 19.6126 54.124 19.79 54.3066 20.0243C54.4926 20.2551 54.639 20.5341 54.7458 20.8613C54.8526 21.1885 54.9266 21.5588 54.968 21.9722V22.4475C54.9301 22.8575 54.856 23.226 54.7458 23.5533C54.639 23.8805 54.4926 24.1595 54.3066 24.3903C54.124 24.6211 53.9001 24.7985 53.6349 24.9225C53.3697 25.0431 53.0597 25.1033 52.7049 25.1033C52.3707 25.1033 52.0676 25.0327 51.7955 24.8915C51.5268 24.7503 51.296 24.5522 51.1031 24.2973C50.9102 24.0424 50.7621 23.7427 50.6588 23.3983C50.5589 23.0504 50.5089 22.6732 50.5089 22.2667ZM51.4648 22.1582V22.2667C51.4648 22.5457 51.4924 22.8075 51.5475 23.0521C51.606 23.2966 51.6939 23.5119 51.811 23.6979C51.9316 23.8839 52.0848 24.0303 52.2708 24.1371C52.4569 24.2405 52.679 24.2921 52.9374 24.2921C53.2543 24.2921 53.5161 24.225 53.7227 24.0906C53.9294 23.9563 54.093 23.7789 54.2136 23.5584C54.3376 23.338 54.4341 23.0986 54.5029 22.8402V21.595C54.4651 21.4056 54.4065 21.223 54.3273 21.0473C54.2515 20.8682 54.1516 20.7097 54.0276 20.572C53.907 20.4307 53.7572 20.3188 53.5781 20.2361C53.399 20.1534 53.1888 20.1121 52.9477 20.1121C52.6859 20.1121 52.4603 20.1672 52.2708 20.2775C52.0848 20.3842 51.9316 20.5324 51.811 20.7218C51.6939 20.9078 51.606 21.1248 51.5475 21.3728C51.4924 21.6174 51.4648 21.8792 51.4648 22.1582Z" fill="white"/>
<path d="M27 47C33.7461 23.8912 52.5936 32.3694 61.1742 39.4971C72.891 46.6998 79.0749 42.4982 80.7022 39.4971L86.9157 27.8675C91.5315 16.1631 101.562 14.4874 106 15.1127" stroke="#22A39F" stroke-width="0.881818" stroke-linecap="round"/>
<defs>
<linearGradient id="paint0_linear_25_379" x1="67.4143" y1="15" x2="67.852" y2="73.641" gradientUnits="userSpaceOnUse">
<stop stop-color="#5BEAD9" stop-opacity="0.63"/>
<stop offset="1" stop-color="#1F1E1F" stop-opacity="0.26"/>
</linearGradient>
</defs>
</svg>
