<svg width="123" height="96" viewBox="0 0 123 96" fill="none" xmlns="http://www.w3.org/2000/svg">
<rect width="123" height="96" rx="13.2167" fill="#202021"/>
<path d="M17.66 14.0411V14.5161C17.66 15.0806 17.5894 15.5865 17.4483 16.034C17.3072 16.4814 17.1041 16.8617 16.8391 17.1749C16.5741 17.4881 16.2557 17.7273 15.884 17.8926C15.5157 18.0578 15.1027 18.1404 14.6449 18.1404C14.2009 18.1404 13.7931 18.0578 13.4213 17.8926C13.0531 17.7273 12.733 17.4881 12.4611 17.1749C12.1926 16.8617 11.9844 16.4814 11.8364 16.034C11.6884 15.5865 11.6144 15.0806 11.6144 14.5161V14.0411C11.6144 13.4767 11.6866 12.9724 11.8312 12.5284C11.9792 12.081 12.1874 11.7007 12.4559 11.3875C12.7244 11.0708 13.0427 10.8299 13.411 10.6647C13.7827 10.4995 14.1906 10.4169 14.6346 10.4169C15.0923 10.4169 15.5054 10.4995 15.8736 10.6647C16.2454 10.8299 16.5637 11.0708 16.8288 11.3875C17.0972 11.7007 17.302 12.081 17.4431 12.5284C17.5877 12.9724 17.66 13.4767 17.66 14.0411ZM16.6739 14.5161V14.0308C16.6739 13.5834 16.6274 13.1876 16.5345 12.8434C16.445 12.4992 16.3125 12.2101 16.1369 11.976C15.9614 11.742 15.7463 11.5647 15.4916 11.4443C15.2403 11.3238 14.9547 11.2636 14.6346 11.2636C14.3248 11.2636 14.0443 11.3238 13.7931 11.4443C13.5452 11.5647 13.3318 11.742 13.1529 11.976C12.9773 12.2101 12.8414 12.4992 12.745 12.8434C12.6486 13.1876 12.6005 13.5834 12.6005 14.0308V14.5161C12.6005 14.967 12.6486 15.3662 12.745 15.7139C12.8414 16.0581 12.9791 16.3489 13.158 16.5864C13.3404 16.8204 13.5556 16.9977 13.8034 17.1181C14.0546 17.2386 14.3351 17.2988 14.6449 17.2988C14.9684 17.2988 15.2558 17.2386 15.5071 17.1181C15.7583 16.9977 15.97 16.8204 16.1421 16.5864C16.3176 16.3489 16.4501 16.0581 16.5396 15.7139C16.6291 15.3662 16.6739 14.967 16.6739 14.5161ZM22.4252 16.7464V12.451H23.3855V18.0371H22.4716L22.4252 16.7464ZM22.6059 15.5693L23.0034 15.559C23.0034 15.9307 22.9638 16.2749 22.8847 16.5915C22.8089 16.9047 22.685 17.1766 22.5129 17.4073C22.3409 17.6379 22.1154 17.8186 21.8366 17.9493C21.5578 18.0767 21.2188 18.1404 20.8196 18.1404C20.5477 18.1404 20.2981 18.1008 20.071 18.0216C19.8472 17.9425 19.6545 17.8203 19.4927 17.6551C19.331 17.4899 19.2053 17.2747 19.1159 17.0097C19.0298 16.7447 18.9868 16.4263 18.9868 16.0546V12.451H19.9419V16.0649C19.9419 16.3162 19.9694 16.5244 20.0245 16.6896C20.083 16.8514 20.1605 16.9805 20.2568 17.0768C20.3566 17.1698 20.4668 17.2352 20.5872 17.273C20.7111 17.3109 20.8385 17.3298 20.9693 17.3298C21.3754 17.3298 21.6972 17.2524 21.9347 17.0975C22.1722 16.9392 22.3426 16.7275 22.4458 16.4625C22.5525 16.194 22.6059 15.8963 22.6059 15.5693ZM27.1801 12.451V13.1841H24.1599V12.451H27.1801ZM25.1821 11.0932H26.1372V16.6535C26.1372 16.8428 26.1665 16.9856 26.225 17.082C26.2835 17.1784 26.3592 17.242 26.4521 17.273C26.5451 17.304 26.6449 17.3195 26.7516 17.3195C26.8307 17.3195 26.9133 17.3126 26.9994 17.2988C27.0889 17.2816 27.156 17.2679 27.2007 17.2575L27.2059 18.0371C27.1302 18.0612 27.0304 18.0836 26.9065 18.1042C26.786 18.1283 26.6397 18.1404 26.4676 18.1404C26.2336 18.1404 26.0185 18.0939 25.8223 18.001C25.6261 17.908 25.4695 17.7532 25.3525 17.5363C25.2389 17.316 25.1821 17.02 25.1821 16.6483V11.0932ZM31.9195 12.451H32.7868V17.9184C32.7868 18.4105 32.687 18.8305 32.4874 19.1781C32.2878 19.5257 32.009 19.789 31.651 19.968C31.2965 20.1504 30.8869 20.2416 30.4223 20.2416C30.2295 20.2416 30.0024 20.2106 29.7408 20.1487C29.4827 20.0902 29.228 19.9886 28.9767 19.8441C28.7289 19.703 28.5207 19.5119 28.352 19.271L28.8528 18.7031C29.0869 18.9853 29.3312 19.1815 29.5859 19.2917C29.8441 19.4018 30.0988 19.4569 30.35 19.4569C30.6529 19.4569 30.9145 19.4001 31.1348 19.2865C31.355 19.1729 31.5254 19.0043 31.6459 18.7805C31.7698 18.5603 31.8317 18.2884 31.8317 17.9648V13.6797L31.9195 12.451ZM28.0732 15.306V15.1976C28.0732 14.7708 28.1231 14.3836 28.223 14.036C28.3262 13.6849 28.4725 13.3837 28.6618 13.1325C28.8545 12.8812 29.0869 12.6885 29.3588 12.5543C29.6307 12.4166 29.937 12.3478 30.2777 12.3478C30.6288 12.3478 30.9351 12.4097 31.1967 12.5336C31.4617 12.6541 31.6854 12.8313 31.8679 13.0654C32.0537 13.296 32.2 13.5748 32.3067 13.9017C32.4134 14.2287 32.4874 14.5987 32.5287 15.0117V15.4867C32.4908 15.8963 32.4168 16.2646 32.3067 16.5915C32.2 16.9185 32.0537 17.1973 31.8679 17.4279C31.6854 17.6585 31.4617 17.8358 31.1967 17.9597C30.9317 18.0801 30.6219 18.1404 30.2674 18.1404C29.9335 18.1404 29.6307 18.0698 29.3588 17.9287C29.0903 17.7876 28.8597 17.5897 28.667 17.335C28.4742 17.0803 28.3262 16.7808 28.223 16.4367C28.1231 16.089 28.0732 15.7121 28.0732 15.306ZM29.0283 15.1976V15.306C29.0283 15.5848 29.0559 15.8464 29.111 16.0908C29.1695 16.3351 29.2572 16.5502 29.3743 16.7361C29.4947 16.922 29.6479 17.0682 29.8337 17.1749C30.0196 17.2782 30.2416 17.3298 30.4997 17.3298C30.8164 17.3298 31.078 17.2627 31.2845 17.1285C31.491 16.9942 31.6545 16.817 31.7749 16.5967C31.8988 16.3764 31.9952 16.1372 32.064 15.8791V14.6349C32.0262 14.4456 31.9677 14.2631 31.8885 14.0876C31.8128 13.9086 31.713 13.7503 31.5891 13.6126C31.4686 13.4715 31.3189 13.3597 31.1399 13.277C30.9609 13.1944 30.751 13.1531 30.5101 13.1531C30.2485 13.1531 30.023 13.2082 29.8337 13.3184C29.6479 13.425 29.4947 13.573 29.3743 13.7623C29.2572 13.9482 29.1695 14.165 29.111 14.4129C29.0559 14.6572 29.0283 14.9188 29.0283 15.1976ZM33.9846 15.306V15.1873C33.9846 14.7846 34.0431 14.4111 34.1601 14.0669C34.2771 13.7193 34.4458 13.4182 34.6661 13.1635C34.8864 12.9053 35.1531 12.7057 35.4663 12.5646C35.7795 12.42 36.1306 12.3478 36.5195 12.3478C36.9119 12.3478 37.2647 12.42 37.5779 12.5646C37.8945 12.7057 38.163 12.9053 38.3833 13.1635C38.607 13.4182 38.7774 13.7193 38.8944 14.0669C39.0114 14.4111 39.0699 14.7846 39.0699 15.1873V15.306C39.0699 15.7087 39.0114 16.0821 38.8944 16.4263C38.7774 16.7705 38.607 17.0717 38.3833 17.3298C38.163 17.5845 37.8962 17.7841 37.583 17.9287C37.2733 18.0698 36.9222 18.1404 36.5298 18.1404C36.1375 18.1404 35.7847 18.0698 35.4715 17.9287C35.1583 17.7841 34.8898 17.5845 34.6661 17.3298C34.4458 17.0717 34.2771 16.7705 34.1601 16.4263C34.0431 16.0821 33.9846 15.7087 33.9846 15.306ZM34.9397 15.1873V15.306C34.9397 15.5848 34.9724 15.8481 35.0378 16.0959C35.1032 16.3403 35.2013 16.5571 35.3321 16.7464C35.4663 16.9357 35.6332 17.0854 35.8329 17.1956C36.0325 17.3023 36.2648 17.3556 36.5298 17.3556C36.7914 17.3556 37.0203 17.3023 37.2165 17.1956C37.4161 17.0854 37.5813 16.9357 37.7121 16.7464C37.8429 16.5571 37.941 16.3403 38.0064 16.0959C38.0752 15.8481 38.1096 15.5848 38.1096 15.306V15.1873C38.1096 14.9119 38.0752 14.6521 38.0064 14.4077C37.941 14.1599 37.8412 13.9413 37.7069 13.752C37.5761 13.5593 37.4109 13.4078 37.2113 13.2977C37.0151 13.1876 36.7845 13.1325 36.5195 13.1325C36.2579 13.1325 36.0273 13.1876 35.8277 13.2977C35.6315 13.4078 35.4663 13.5593 35.3321 13.752C35.2013 13.9413 35.1032 14.1599 35.0378 14.4077C34.9724 14.6521 34.9397 14.9119 34.9397 15.1873ZM41.3054 12.451V18.0371H40.3451V12.451H41.3054ZM40.2728 10.9693C40.2728 10.8144 40.3193 10.6836 40.4122 10.5769C40.5086 10.4702 40.6497 10.4169 40.8356 10.4169C41.018 10.4169 41.1574 10.4702 41.2538 10.5769C41.3536 10.6836 41.4035 10.8144 41.4035 10.9693C41.4035 11.1173 41.3536 11.2446 41.2538 11.3513C41.1574 11.4546 41.018 11.5062 40.8356 11.5062C40.6497 11.5062 40.5086 11.4546 40.4122 11.3513C40.3193 11.2446 40.2728 11.1173 40.2728 10.9693ZM43.7938 13.6436V18.0371H42.8387V12.451H43.7422L43.7938 13.6436ZM43.5667 15.0324L43.1691 15.0169C43.1726 14.6349 43.2294 14.2821 43.3395 13.9585C43.4496 13.6316 43.6045 13.3476 43.8042 13.1067C44.0038 12.8657 44.2413 12.6799 44.5166 12.5491C44.7954 12.4149 45.1034 12.3478 45.4407 12.3478C45.7161 12.3478 45.9639 12.3856 46.1842 12.4613C46.4045 12.5336 46.592 12.6506 46.7469 12.8124C46.9053 12.9742 47.0257 13.1841 47.1083 13.4423C47.1909 13.697 47.2322 14.0084 47.2322 14.3767V18.0371H46.272V14.3664C46.272 14.0738 46.2289 13.8398 46.1429 13.6643C46.0568 13.4853 45.9312 13.3562 45.766 13.277C45.6008 13.1944 45.3977 13.1531 45.1568 13.1531C44.9193 13.1531 44.7025 13.203 44.5063 13.3029C44.3135 13.4027 44.1466 13.5403 44.0055 13.7159C43.8678 13.8914 43.7594 14.0928 43.6802 14.3199C43.6045 14.5436 43.5667 14.7811 43.5667 15.0324ZM52.3021 12.451H53.1694V17.9184C53.1694 18.4105 53.0696 18.8305 52.87 19.1781C52.6703 19.5257 52.3915 19.789 52.0336 19.968C51.6791 20.1504 51.2695 20.2416 50.8049 20.2416C50.6121 20.2416 50.3849 20.2106 50.1234 20.1487C49.8652 20.0902 49.6105 19.9886 49.3593 19.8441C49.1115 19.703 48.9032 19.5119 48.7346 19.271L49.2354 18.7031C49.4694 18.9853 49.7138 19.1815 49.9685 19.2917C50.2266 19.4018 50.4813 19.4569 50.7326 19.4569C51.0355 19.4569 51.297 19.4001 51.5173 19.2865C51.7376 19.1729 51.908 19.0043 52.0284 18.7805C52.1523 18.5603 52.2143 18.2884 52.2143 17.9648V13.6797L52.3021 12.451ZM48.4558 15.306V15.1976C48.4558 14.7708 48.5057 14.3836 48.6055 14.036C48.7088 13.6849 48.855 13.3837 49.0444 13.1325C49.2371 12.8812 49.4694 12.6885 49.7413 12.5543C50.0132 12.4166 50.3196 12.3478 50.6603 12.3478C51.0114 12.3478 51.3177 12.4097 51.5793 12.5336C51.8443 12.6541 52.068 12.8313 52.2504 13.0654C52.4363 13.296 52.5826 13.5748 52.6893 13.9017C52.796 14.2287 52.87 14.5987 52.9113 15.0117V15.4867C52.8734 15.8963 52.7994 16.2646 52.6893 16.5915C52.5826 16.9185 52.4363 17.1973 52.2504 17.4279C52.068 17.6585 51.8443 17.8358 51.5793 17.9597C51.3142 18.0801 51.0045 18.1404 50.65 18.1404C50.3161 18.1404 50.0132 18.0698 49.7413 17.9287C49.4729 17.7876 49.2423 17.5897 49.0495 17.335C48.8568 17.0803 48.7088 16.7808 48.6055 16.4367C48.5057 16.089 48.4558 15.7121 48.4558 15.306ZM49.4109 15.1976V15.306C49.4109 15.5848 49.4384 15.8464 49.4935 16.0908C49.552 16.3351 49.6398 16.5502 49.7568 16.7361C49.8773 16.922 50.0304 17.0682 50.2163 17.1749C50.4022 17.2782 50.6242 17.3298 50.8823 17.3298C51.1989 17.3298 51.4605 17.2627 51.667 17.1285C51.8735 16.9942 52.037 16.817 52.1575 16.5967C52.2814 16.3764 52.3778 16.1372 52.4466 15.8791V14.6349C52.4087 14.4456 52.3502 14.2631 52.2711 14.0876C52.1954 13.9086 52.0955 13.7503 51.9716 13.6126C51.8512 13.4715 51.7014 13.3597 51.5225 13.277C51.3435 13.1944 51.1335 13.1531 50.8926 13.1531C50.631 13.1531 50.4056 13.2082 50.2163 13.3184C50.0304 13.425 49.8773 13.573 49.7568 13.7623C49.6398 13.9482 49.552 14.165 49.4935 14.4129C49.4384 14.6572 49.4109 14.9188 49.4109 15.1976Z" fill="white"/>
<path d="M55.4709 44.3154C46.8373 37.2614 27.4338 29.4922 20.646 52.3622L21.0853 85.526H101.914L101.475 46.6895C97.0089 46.0708 90.9317 21.3805 81.3718 32.806L75.1199 44.3154C73.4824 47.2855 67.2603 51.4436 55.4709 44.3154Z" fill="url(#paint0_linear_25_380)"/>
<path d="M21.0858 52.3641C27.838 29.0452 46.7026 37.6005 55.2909 44.793C67.0183 52.0611 73.2078 47.8214 74.8366 44.793L81.0557 33.0577C90.0537 20.0732 96.5936 46.0604 101.036 46.6913" stroke="#2FE9B6" stroke-width="0.88111" stroke-linecap="round"/>
<ellipse cx="99.2784" cy="45.3812" rx="2.63571" ry="2.61818" fill="#2FE9B6"/>
<defs>
<linearGradient id="paint0_linear_25_380" x1="61.4996" y1="20.0713" x2="61.9283" y2="78.1078" gradientUnits="userSpaceOnUse">
<stop stop-color="#27C294" stop-opacity="0.63"/>
<stop offset="1" stop-color="#1F1E1F" stop-opacity="0.26"/>
</linearGradient>
</defs>
</svg>
