<svg width="175" height="253" viewBox="0 0 175 253" fill="none" xmlns="http://www.w3.org/2000/svg">
<g clip-path="url(#clip0_362_3)">
<path d="M174.973 253H0.0273438V0H174.973V199.617V253Z" fill="#ED2028"/>
<path d="M162.193 11.8657V241.134H12.8068V11.8657H162.193ZM167.631 6.80566H7.36865V246.194H167.631V6.80566Z" fill="white"/>
<path d="M87.4728 47.1592H87.6631C119.803 47.2604 145.552 71.2954 145.471 101.099C145.389 130.624 119.422 154.583 87.5272 154.583H87.4184C55.4148 154.532 29.4476 130.422 29.502 100.871C29.5836 71.1183 55.4692 47.1592 87.4728 47.1592M87.4728 42.6052C78.9893 42.6052 70.7776 44.1485 63.0283 47.1845C55.5508 50.1193 48.8347 54.3191 43.0702 59.6574C37.3058 64.9957 32.7649 71.2448 29.6108 78.177C26.3207 85.3622 24.662 93.0028 24.6349 100.896C24.6077 108.739 26.2663 116.355 29.5564 123.54C32.7105 130.472 37.2514 136.696 43.0158 142.06C48.7803 147.398 55.4964 151.623 62.9739 154.558C70.7233 157.619 78.9621 159.162 87.4184 159.188H87.5544C122.114 159.188 150.311 133.154 150.392 101.149C150.42 93.2558 148.788 85.5899 145.525 78.3794C142.398 71.4219 137.885 65.1728 132.12 59.8092C126.383 54.4456 119.667 50.2205 112.189 47.2857C104.44 44.2244 96.201 42.6811 87.6903 42.6558L87.4728 42.6052Z" fill="white"/>
<path d="M73.4695 77.7216C70.6417 99.176 67.8138 120.529 64.986 141.882H92.5303C95.5213 120.479 98.5394 99.1254 101.53 77.6963H120.537C121.543 73.4965 122.522 69.3473 123.555 65.1222H116.377C96.0379 65.1222 75.6992 65.1222 55.3604 65.0969C54.6535 65.0969 54.3816 65.274 54.2184 65.9318C53.5659 68.9172 52.8317 71.8773 52.1247 74.8374C51.9072 75.7735 51.6897 76.7096 51.445 77.6963C58.8681 77.7216 66.128 77.7216 73.4695 77.7216ZM142.072 193.09C139.326 195.999 135.736 197.492 131.549 197.618C129.102 197.694 126.655 195.974 125.893 193.823C127.634 193.09 129.374 192.331 131.168 191.572C131.712 192.457 132.31 193.191 133.452 193.368C134.785 193.57 136.96 192.66 137.613 191.597C138.102 190.813 137.939 190.079 137.449 189.371C137.014 188.713 136.307 188.536 135.546 188.662C133.588 188.94 131.631 189.345 129.673 189.573C128.558 189.699 127.362 189.775 126.301 189.548C122.576 188.738 120.945 184.386 123.12 181.249C124.479 179.301 126.519 178.188 128.748 177.353C129.972 176.898 131.277 176.543 132.582 176.392C135.41 176.088 137.449 177.328 138.673 179.984C136.878 180.743 135.138 181.502 133.344 182.261C132.827 181.249 132.093 180.566 130.869 180.566C129.673 180.591 128.721 181.123 128.069 182.034C127.606 182.666 127.634 183.349 128.041 184.007C128.422 184.639 129.02 184.968 129.782 184.892C131.495 184.665 133.208 184.336 134.948 184.159C136.335 184.007 137.749 183.88 139.135 183.982C139.924 184.032 140.767 184.462 141.392 184.968C143.377 186.562 144.927 190.079 142.072 193.09V193.09ZM52.1247 201.616C57.3998 202.83 62.566 204.019 67.7866 205.234C68.1129 203.969 68.4392 202.754 68.7655 201.515C65.3667 200.73 62.0766 199.971 58.7593 199.187C59.14 197.821 59.4935 196.505 59.8469 195.114C62.9467 195.822 65.9649 196.53 69.0374 197.239C69.3637 195.999 69.69 194.835 70.0163 193.596C66.9165 192.862 63.8984 192.179 60.7986 191.445C61.1521 190.104 61.5056 188.839 61.859 187.498C65.1219 188.257 68.3576 188.991 71.6477 189.75C71.974 188.536 72.3003 187.347 72.6266 186.107C67.4875 184.918 62.3757 183.729 57.2094 182.54C55.4964 188.94 53.8106 195.265 52.1247 201.616V201.616ZM46.4962 184.842C48.2636 185.601 50.0311 186.36 51.7713 187.119C53.1308 184.918 52.8589 182.59 51.0915 180.794C49.7591 179.428 48.0733 178.542 46.2515 177.859C44.321 177.1 42.3632 176.645 40.2424 177.024C36.9251 177.606 34.6139 180.946 35.5655 183.855C36.0278 185.221 37.061 186.208 38.2031 187.094C39.6442 188.207 41.1125 189.295 42.5264 190.408C43.4237 191.116 43.614 191.825 43.2062 192.685C42.7711 193.621 41.901 194.102 40.8134 193.95C39.6714 193.798 38.6653 193.343 37.8496 192.609C37.2242 192.027 36.9251 191.293 37.1154 190.433C37.197 190.079 37.3058 189.75 37.4145 189.345C35.6743 188.586 33.9069 187.827 32.1667 187.094C30.8615 189.193 31.1878 191.951 32.9008 193.773C34.4235 195.367 36.3541 196.379 38.4478 197.163C40.4871 197.922 42.5808 198.377 44.756 197.922C47.1488 197.416 48.5084 195.873 49.2425 193.798C49.9223 191.85 49.2969 190.205 47.8014 188.789C47.0944 188.106 46.2515 187.549 45.5446 186.866C44.2938 185.677 43.043 184.462 41.9554 183.172C41.3028 182.388 41.6019 181.654 42.5264 181.224C43.6684 180.667 44.756 180.996 45.7621 181.603C46.6866 182.16 46.9857 183.02 46.7953 184.032C46.7138 184.285 46.605 184.538 46.4962 184.842V184.842ZM112.679 199.87C112.325 198.479 111.972 197.138 111.618 195.797C114.745 195.088 117.763 194.38 120.836 193.697C120.51 192.432 120.183 191.243 119.857 190.054C116.73 190.762 113.712 191.445 110.639 192.154C110.286 190.787 109.932 189.522 109.606 188.207C112.896 187.448 116.132 186.714 119.395 185.955C119.068 184.69 118.742 183.526 118.416 182.312C113.25 183.501 108.165 184.665 102.999 185.829C104.685 192.204 106.343 198.529 108.029 204.905C113.277 203.716 118.47 202.527 123.691 201.337C123.365 200.047 123.038 198.883 122.712 197.644C119.313 198.352 116.023 199.111 112.679 199.87V199.87ZM94.4336 186.41C95.4669 192.938 96.4729 199.415 97.479 205.891C99.5455 205.613 101.476 205.335 103.461 205.082C102.428 198.529 101.422 192.078 100.416 185.601C98.3763 185.879 96.4729 186.132 94.4336 186.41ZM89.3489 196.1C88.6148 196.328 87.8535 196.48 87.0649 196.682C87.2281 196.733 87.3912 196.783 87.5544 196.809C90.0831 197.163 91.0076 198.074 91.2523 200.503C91.3611 201.515 91.4155 202.527 91.5514 203.539C91.6874 204.551 91.8777 205.537 92.068 206.676C89.9743 206.575 87.8806 206.499 85.651 206.397C85.515 204.677 85.3519 203.007 85.2431 201.363C85.1344 199.162 84.6177 198.63 82.2521 198.529C81.5452 198.504 80.811 198.529 80.0225 198.529C79.9681 199.794 79.8866 201.059 79.8322 202.299C79.7506 203.539 79.669 204.778 79.5875 206.119C77.6569 206.018 75.7535 205.917 73.7142 205.816C74.0677 199.288 74.4484 192.761 74.8019 186.157C76.1886 186.208 77.4938 186.259 78.8261 186.335C81.1101 186.461 83.3942 186.562 85.651 186.714C86.6571 186.79 87.6903 186.891 88.6692 187.119C90.5725 187.524 92.0408 189.067 92.204 190.889C92.2856 191.723 92.2312 192.609 92.0408 193.444C91.7961 194.785 90.7357 195.645 89.3489 196.1V196.1ZM85.1616 190.484C83.6661 190.003 82.1162 190.104 80.5391 190.028C80.4576 191.673 80.376 193.216 80.2944 194.937C81.7627 194.937 83.1495 194.987 84.509 194.911C85.5966 194.861 86.4123 194.026 86.5755 192.963C86.7386 191.799 86.222 190.838 85.1616 190.484V190.484Z" fill="white"/>
</g>
<defs>
<clipPath id="clip0_362_3">
<rect width="175" height="253" fill="white"/>
</clipPath>
</defs>
</svg>
