<svg width="191" height="223" viewBox="0 0 191 223" fill="none" xmlns="http://www.w3.org/2000/svg">
<path d="M95.5104 222.5L122.232 47.0853C147.699 47.0853 155.735 50.3459 156.897 63.6521C156.897 63.6521 173.984 56.2151 182.602 41.1121C148.974 22.922 115.186 22.1034 115.186 22.1034L95.4688 50.1309L95.5134 50.1274L75.7961 22.0999C75.7961 22.0999 42.0109 22.922 8.38316 41.1087C16.9922 56.2116 34.0884 63.6486 34.0884 63.6486C35.2562 50.3425 43.2798 47.0818 68.5779 47.061L95.5104 222.5ZM95.5015 14.0038C122.684 13.761 153.8 18.9121 185.651 35.1181C189.909 26.1757 191 22.2213 191 22.2213C156.184 6.14019 123.578 0.63875 95.5015 0.5C67.4189 0.63875 34.8135 6.14019 0 22.2213C0 22.2213 1.5542 27.0914 5.34906 35.1181C37.1968 18.9121 68.3104 13.761 95.5015 14.0038Z" fill="#E82127"/>
</svg>
