<svg width="209" height="209" viewBox="0 0 209 209" fill="none" xmlns="http://www.w3.org/2000/svg">
<g clip-path="url(#clip0_98_674)">
<path d="M208.939 0H0.0612305C0.0274138 0 0 0.0274138 0 0.0612305V208.939C0 208.973 0.0274138 209 0.0612305 209H208.939C208.973 209 209 208.973 209 208.939V0.0612305C209 0.0274138 208.973 0 208.939 0Z" fill="#1DA1F2"/>
<path d="M178.385 62.0469C173.486 64.4961 167.771 66.1289 162.057 66.9453C168.18 63.2715 172.67 57.5566 175.119 50.6172C169.404 53.8828 163.281 56.332 156.75 57.5566C152.308 53.0069 146.51 50.0206 140.226 49.0458C133.943 48.071 127.513 49.1603 121.901 52.1502C116.289 55.1401 111.798 59.8694 109.102 65.6283C106.406 71.3872 105.651 77.8651 106.949 84.0898C84.0898 82.8652 62.0469 72.2519 47.7598 53.8828C45.8157 56.9878 44.5055 60.447 43.9048 64.0607C43.304 67.6745 43.4245 71.3715 44.2593 74.9385C45.0941 78.5055 46.6268 81.872 48.7689 84.8438C50.911 87.8157 53.6202 90.3341 56.7402 92.2539C52.25 92.2539 47.7598 91.4375 43.6777 89.3965C44.0859 102.867 53.4746 114.705 66.5371 117.562C62.4551 118.787 57.9648 118.787 53.4746 117.971C57.5566 129.809 68.5781 137.973 80.8242 138.381C68.9863 148.178 53.0664 152.668 37.9629 150.219C50.5842 158.641 65.312 163.359 80.4777 163.84C95.6433 164.321 110.64 160.545 123.77 152.939C136.899 145.333 147.636 134.202 154.764 120.807C161.891 107.412 165.125 92.2888 164.098 77.1504C169.812 73.0684 174.711 68.1699 178.385 62.0469Z" fill="white"/>
</g>
<defs>
<clipPath id="clip0_98_674">
<rect width="209" height="209" rx="30" fill="white"/>
</clipPath>
</defs>
</svg>
